<svg width="162" height="203" viewBox="0 0 162 203" fill="none" xmlns="http://www.w3.org/2000/svg">
<path d="M70.3912 44.8168C71.499 44.8168 72.3298 45.1491 72.8837 45.8138C73.5484 46.4785 73.8807 47.4201 73.8807 48.6387C73.8807 49.8572 73.0499 51.4082 71.3882 53.2914C69.7265 55.1747 68.2863 56.1163 67.0678 56.1163C65.8492 56.1163 64.963 55.784 64.4091 55.1193C63.8552 54.3438 63.5782 53.513 63.5782 52.6267C63.5782 51.6297 64.4644 50.0788 66.2369 47.974C68.0094 45.8692 69.3941 44.8168 70.3912 44.8168ZM84.1832 67.2497C85.0695 66.6958 85.7342 66.4188 86.1773 66.4188C86.7312 66.4188 87.0081 66.7512 87.0081 67.4158V67.9143C87.4512 67.9143 84.4602 70.3515 78.035 75.2258C71.7205 80.1001 64.9076 84.9744 57.5961 89.8487C50.3954 94.7231 45.8534 97.1602 43.9702 97.1602C40.7576 97.1602 39.1513 95.8308 39.1513 93.1721C39.1513 89.9595 41.9208 83.922 47.4597 75.0596C52.9987 66.0865 57.0422 61.5999 59.5901 61.5999C61.4734 61.5999 62.415 62.32 62.415 63.7601C62.415 65.2002 59.8671 69.1329 54.7712 75.5581C49.6753 81.9834 47.1274 86.5807 47.1274 89.3502C47.1274 90.9011 47.6813 91.6766 48.7891 91.6766C50.0077 91.6766 52.9433 90.1257 57.5961 87.0239C65.9046 81.4849 73.5484 75.8905 80.5275 70.2407L84.1832 67.2497ZM56.6783 86.8577C56.6783 88.5194 58.2292 90.4026 61.331 92.5075C64.3221 94.5015 67.2023 95.4985 69.9718 95.4985C72.8521 95.4985 75.2893 95.3323 77.2833 95L80.7729 90.3472C77.5603 84.5867 72.409 81.7064 65.3191 81.7064C62.8819 81.7064 60.8325 82.1495 59.1708 83.0358C57.5091 83.8112 56.6783 85.0852 56.6783 86.8577ZM83.2654 101.148C83.2654 100.262 83.1546 99.0435 82.9331 97.4925C55.5705 136.376 41.8892 157.701 41.8892 161.468C41.8892 162.465 42.5538 162.963 43.8832 162.963C48.8683 162.963 54.5181 159.474 60.8325 152.495C67.0362 145.626 72.2982 137.262 76.6186 127.403C81.0498 117.654 83.2654 108.903 83.2654 101.148ZM130.624 68.0805C113.564 82.2603 99.6608 91.3443 88.9152 95.3323C89.2475 96.8833 89.4137 98.4896 89.4137 100.151C89.4137 106.576 87.6412 113.833 84.0963 121.919C80.6621 130.117 76.3971 137.65 71.3012 144.519C66.2053 151.387 60.6663 157.147 54.6842 161.8C48.5913 166.564 43.1631 168.946 38.3996 168.946C35.187 168.946 33.5807 167.672 33.5807 165.124C33.5807 160.139 47.2066 138.149 74.4584 99.1542C72.7967 99.265 71.6335 99.3204 70.9689 99.3204C65.3191 99.3204 60.8325 98.1572 57.5091 95.8308C54.1857 93.5045 52.524 90.9565 52.524 88.187C52.524 85.3068 53.9088 83.0358 56.6783 81.3741C59.337 79.7124 62.6604 78.8815 66.6484 78.8815C73.8491 78.8815 79.6097 81.2079 83.9301 85.8607L121.651 34.1819C121.651 33.9603 121.484 33.8496 121.152 33.8496C111.514 44.0413 103.04 52.6267 95.7281 59.6059C88.5275 66.585 83.7085 71.0162 81.2714 72.8994L77.6156 75.7243L76.7848 73.2318C85.2041 66.3634 93.014 59.2735 100.215 51.9621C107.415 44.6506 112.511 39.0562 115.502 35.1789L119.989 29.363C127.633 19.7251 132.341 13.9092 134.113 11.9152C136.883 8.92411 139.043 7.42858 140.594 7.42858C142.145 7.42858 142.92 8.3702 142.92 10.2535C142.92 11.9152 139.652 17.4541 133.116 26.8704C126.58 36.2867 121.484 43.5982 117.829 48.8048C106.418 64.8679 99.3285 74.7273 96.559 78.383L87.5858 91.0119L88.0843 92.3413C96.3928 89.3502 105.477 84.199 115.336 76.8875L127.467 67.4158C128.353 66.8619 129.073 66.585 129.627 66.585C130.291 66.585 130.624 66.9727 130.624 67.7482V68.0805Z" fill="#B2AB84"/>
<circle cx="81" cy="81" r="78" stroke="#B2AB84" stroke-width="6"/>
<path d="M17.8022 179.038C16.7326 180.087 14.4289 183.255 10.8911 188.541C13.7913 188.006 15.5808 187.739 16.2596 187.739C16.9589 187.739 17.6788 187.872 18.4193 188.14C19.1597 188.407 19.53 188.705 19.53 189.034C19.53 189.158 19.4683 189.261 19.3449 189.343C19.242 189.425 19.1289 189.466 19.0055 189.466C18.9026 189.466 18.3781 189.322 17.432 189.034C16.4858 188.747 15.5705 188.603 14.686 188.603C13.8222 188.603 12.4235 188.777 10.49 189.127C6.72596 194.639 4.23715 197.941 3.0236 199.031C2.40654 199.586 1.9026 199.864 1.5118 199.864C1.16213 199.864 0.987297 199.617 0.987297 199.123C0.987297 198.856 1.05929 198.527 1.20327 198.136C1.34725 197.745 1.54265 197.55 1.78948 197.55C1.87175 197.55 1.92317 197.642 1.94374 197.828C1.96431 197.992 1.99516 198.074 2.0363 198.074C2.44767 198.074 3.20872 197.344 4.31943 195.884C5.4507 194.403 6.99336 192.243 8.94738 189.405C6.58198 189.857 4.78222 190.083 3.5481 190.083C1.1827 190.083 0 189.466 0 188.232C0 186.978 1.049 185.394 3.14701 183.481C5.24502 181.547 7.79554 179.851 10.7986 178.39C13.8016 176.909 16.4241 176.169 18.6661 176.169C20.2499 176.169 21.0418 176.601 21.0418 177.465C21.0418 178.123 20.6407 178.853 19.8385 179.655C19.0363 180.457 18.3987 180.858 17.9256 180.858C17.8022 180.858 17.7405 180.786 17.7405 180.642C17.7405 180.478 17.7816 180.365 17.8639 180.303C18.2959 180.097 18.6969 179.768 19.0672 179.316C19.458 178.863 19.6534 178.442 19.6534 178.051C19.6534 177.31 18.8821 176.94 17.3394 176.94C15.7968 176.94 13.7605 177.588 11.2305 178.884C8.70056 180.18 6.49971 181.681 4.62796 183.388C2.75621 185.096 1.82033 186.505 1.82033 187.615C1.82033 188.705 2.90019 189.25 5.0599 189.25C5.88265 189.25 7.32246 189.086 9.37932 188.757C11.5802 185.61 13.1742 183.388 14.1615 182.093C15.9716 179.748 17.216 178.575 17.8948 178.575C17.9976 178.575 18.049 178.606 18.049 178.668L17.8022 179.038ZM21.2257 193.878C21.3697 193.776 21.5034 193.724 21.6268 193.724C21.7502 193.724 21.8119 193.796 21.8119 193.94V194.002C19.6728 195.771 18.0478 197.005 16.9371 197.704C15.4973 198.794 14.2838 199.339 13.2965 199.339C12.4326 199.339 12.0006 198.825 12.0006 197.797C12.0006 196.419 12.8851 194.382 14.654 191.688C16.4435 188.973 18.4489 186.535 20.6703 184.376C22.8918 182.216 24.5681 181.136 25.6994 181.136C26.2136 181.136 26.4707 181.362 26.4707 181.815C26.4707 182.946 25.1132 184.818 22.3981 187.43C19.7036 190.022 17.0502 192.233 14.438 194.064C13.677 195.524 13.2965 196.635 13.2965 197.396C13.2965 198.157 13.5638 198.537 14.0986 198.537C14.6334 198.537 15.3328 198.229 16.1966 197.612C17.657 196.748 19.0763 195.719 20.4544 194.526L21.2257 193.878ZM24.9281 182.123C24.0642 182.123 22.5318 183.368 20.3309 185.857C18.1301 188.345 16.3098 190.834 14.87 193.323C17.2354 191.636 19.5493 189.58 21.8119 187.152C24.0745 184.705 25.2057 183.121 25.2057 182.401C25.2057 182.216 25.1132 182.123 24.9281 182.123ZM23.638 196.347C24.7899 196.347 26.168 195.699 27.7723 194.403L28.2968 194.557C26.2811 196.244 24.543 197.087 23.0827 197.087C22.9181 197.087 22.7947 197.077 22.7124 197.056C22.1571 197.735 21.5503 198.29 20.8921 198.722C20.2339 199.134 19.658 199.339 19.1643 199.339C18.3827 199.339 17.9919 198.907 17.9919 198.044C17.9919 197.159 18.7221 195.987 20.1825 194.526C19.9356 193.93 19.8122 193.302 19.8122 192.644C19.8122 191.986 20.0488 191.451 20.5219 191.04C20.9949 190.629 21.54 190.423 22.1571 190.423C22.7947 190.423 23.3295 190.629 23.7614 191.04C24.1934 191.451 24.4093 192.037 24.4093 192.799C24.4093 193.971 24.0288 195.143 23.2678 196.316C23.35 196.336 23.4735 196.347 23.638 196.347ZM22.6507 196.038C23.2883 194.969 23.6072 194.064 23.6072 193.323C23.6072 192.562 23.422 192.007 23.0518 191.657C22.6816 191.287 22.3216 191.102 21.9719 191.102C21.252 191.102 20.8921 191.472 20.8921 192.212C20.8921 192.953 21.0566 193.693 21.3857 194.434C21.7148 195.154 22.1365 195.688 22.6507 196.038ZM19.2569 197.858C19.2569 198.27 19.5243 198.475 20.0591 198.475C20.5938 198.475 21.2726 197.93 22.0954 196.84C21.54 196.552 21.0464 196.048 20.6144 195.328C19.7094 196.316 19.2569 197.159 19.2569 197.858ZM40.9294 193.971C36.5895 197.591 33.9052 199.401 32.8768 199.401C32.2803 199.401 31.9821 199.154 31.9821 198.661C31.9821 198.167 32.198 197.581 32.63 196.902C33.0825 196.223 33.5247 195.627 33.9567 195.113C34.4092 194.578 34.6354 194.259 34.6354 194.156C34.6354 194.053 34.6046 194.002 34.5429 194.002C32.63 195.277 31.4884 196.059 31.1182 196.347C30.7685 196.635 30.1823 197.108 29.3596 197.766C28.5574 198.424 28.0329 198.835 27.7861 199C27.5392 199.165 27.2718 199.247 26.9839 199.247C26.6959 199.247 26.5519 199.123 26.5519 198.877C26.5519 198.589 27.1279 197.684 28.2797 196.162C29.3904 194.639 29.9458 193.786 29.9458 193.601C29.9458 193.56 29.9046 193.539 29.8224 193.539C29.7606 193.539 28.8762 194.166 27.169 195.421L27.0456 194.958C28.506 193.786 29.4933 193.035 30.0075 192.706C30.5217 192.377 30.9331 192.212 31.2416 192.212C31.5707 192.212 31.7352 192.367 31.7352 192.675C31.7352 192.881 31.149 193.724 29.9766 195.205C28.8248 196.665 28.2489 197.457 28.2489 197.581C28.2489 197.684 28.2797 197.735 28.3414 197.735C28.4237 197.735 29.5961 196.912 31.8587 195.267C34.1418 193.601 35.5302 192.768 36.0238 192.768C36.1678 192.768 36.3015 192.829 36.4249 192.953C36.5689 193.056 36.6409 193.158 36.6409 193.261C36.6409 193.508 36.0958 194.331 35.0057 195.73C33.9155 197.108 33.3705 197.889 33.3705 198.074C33.3705 198.26 33.4939 198.352 33.7407 198.352C34.0081 198.352 34.5634 198.074 35.4068 197.519C36.9494 196.511 38.3686 195.472 39.6645 194.403L40.3432 193.848C40.4872 193.745 40.6209 193.693 40.7443 193.693C40.8677 193.693 40.9294 193.755 40.9294 193.878V193.971ZM43.4823 195.298C43.3589 195.298 43.2972 195.256 43.2972 195.174C43.2972 195.071 43.3692 194.958 43.5132 194.835C44.1919 194.279 44.5313 193.776 44.5313 193.323C44.5313 193.035 44.2742 192.871 43.76 192.829C42.8344 192.85 41.7237 193.518 40.4278 194.835C39.1526 196.151 38.515 197.139 38.515 197.797C38.515 198.023 38.6384 198.136 38.8852 198.136C39.1526 198.136 39.5023 197.961 39.9342 197.612C40.325 197.365 41.0552 196.748 42.1248 195.76C42.3716 195.514 42.6081 195.39 42.8344 195.39C43.1223 195.39 43.2663 195.524 43.2663 195.791C43.2663 195.894 43.2355 195.976 43.1738 196.038C43.1121 196.1 42.9989 196.234 42.8344 196.439C42.6698 196.624 42.5259 196.799 42.4024 196.964C42.0322 197.498 41.8471 197.848 41.8471 198.013C41.8471 198.424 42.0116 198.63 42.3407 198.63C42.7727 198.63 43.5851 198.239 44.7781 197.457C45.9711 196.655 47.0613 195.853 48.0485 195.051L49.5295 193.878C49.6735 193.776 49.8072 193.724 49.9306 193.724C50.054 193.724 50.1157 193.796 50.1157 193.94V194.002C48.5319 195.339 46.8556 196.593 45.0867 197.766C43.3383 198.938 42.1865 199.525 41.6311 199.525C40.9729 199.525 40.6438 199.175 40.6438 198.475C40.6438 198.311 40.6747 198.157 40.7364 198.013C40.7981 197.869 40.8289 197.766 40.8289 197.704C40.8289 197.642 40.8084 197.601 40.7672 197.581C40.7055 197.581 40.3044 197.858 39.564 198.414C38.8441 198.969 38.2064 199.247 37.6511 199.247C37.1163 199.247 36.8489 198.959 36.8489 198.383C36.8489 197.807 37.2294 197.036 37.9905 196.069C38.7721 195.082 39.8108 194.187 41.1066 193.385C42.4024 192.583 43.6674 192.181 44.9015 192.181C45.1895 192.181 45.426 192.253 45.6112 192.397C45.8168 192.541 45.9197 192.768 45.9197 193.076C45.9197 193.364 45.6214 193.806 45.025 194.403C44.4285 194.999 43.9142 195.298 43.4823 195.298ZM57.9584 195.73C57.9584 194.763 58.1744 193.776 58.6063 192.768C59.0383 191.76 59.5319 190.875 60.0873 190.114C60.6632 189.353 61.4551 188.5 62.4629 187.554C63.4914 186.607 64.345 185.867 65.0237 185.332C65.7025 184.777 66.6281 184.067 67.8005 183.203C68.1708 181.681 68.7364 180.406 69.4974 179.377C70.8138 177.567 72.1714 176.662 73.57 176.662C74.1254 176.662 74.4031 176.837 74.4031 177.187C74.4031 177.783 74.1048 178.462 73.5083 179.223C72.9324 179.984 72.3051 180.663 71.6263 181.26C70.9475 181.835 69.9705 182.627 68.6953 183.635C68.5101 184.684 68.4176 185.805 68.4176 186.998C68.4176 188.191 68.4587 189.168 68.541 189.929C70.4127 188.839 72.0891 188.294 73.57 188.294C75.051 188.294 75.7915 188.952 75.7915 190.269C75.7915 191.215 75.3287 192.336 74.4031 193.632C73.4775 194.927 72.2742 196.09 70.7933 197.118C72.0274 199.134 73.6215 200.142 75.5755 200.142C76.2748 200.142 77.0359 199.915 77.8586 199.463C78.7019 199.031 79.175 198.815 79.2779 198.815C79.4013 198.815 79.463 198.866 79.463 198.969C79.463 199.339 78.9385 199.74 77.8895 200.172C76.8405 200.625 75.8017 200.851 74.7733 200.851C72.7987 200.851 71.1326 199.823 69.7751 197.766C67.5126 199.103 65.1986 199.771 62.8332 199.771C61.3317 199.771 60.1387 199.422 59.2542 198.722C58.3903 198.023 57.9584 197.025 57.9584 195.73ZM65.7951 192.274C66.1859 191.739 66.7309 191.204 67.4303 190.67C67.3274 189.682 67.276 188.685 67.276 187.677C67.276 186.669 67.3583 185.641 67.5228 184.592C63.4708 187.821 60.9614 190.557 59.9947 192.799C59.5628 193.848 59.3468 194.897 59.3468 195.946C59.3468 198.044 60.6632 199.093 63.296 199.093C65.25 199.093 67.2863 198.434 69.4049 197.118C68.4793 195.472 67.8519 193.518 67.5228 191.256C66.4944 192.181 65.9493 193.179 65.8876 194.249C65.8054 194.537 65.6408 194.681 65.394 194.681C65.1677 194.681 65.0546 194.465 65.0546 194.033C65.034 193.827 65.0237 193.354 65.0237 192.613C65.0237 191.852 65.034 191.307 65.0546 190.978C65.0752 190.629 65.1986 190.454 65.4248 190.454C65.5482 190.454 65.6511 190.526 65.7334 190.67C65.8362 190.793 65.8876 190.958 65.8876 191.163C65.8876 191.348 65.8568 191.719 65.7951 192.274ZM74.6807 190.762C74.6807 189.672 74.0123 189.127 72.6753 189.127C71.3589 189.127 70.0014 189.559 68.6027 190.423C68.9318 192.829 69.5283 194.835 70.3922 196.439C71.6469 195.534 72.6753 194.547 73.4775 193.477C74.2797 192.408 74.6807 191.503 74.6807 190.762ZM73.3849 177.557C73.3849 177.351 73.2307 177.249 72.9221 177.249C72.3051 177.249 71.5954 177.67 70.7933 178.514C70.0117 179.336 69.4049 180.612 68.9729 182.339C70.4745 181.208 71.5852 180.282 72.3051 179.563C73.025 178.822 73.3849 178.154 73.3849 177.557ZM83.6267 197.704L83.349 198.29C83.349 198.352 83.3799 198.383 83.4416 198.383C84.4906 198.383 85.7144 197.529 87.1131 195.822C88.2649 194.423 89.6739 192.49 91.3399 190.022C90.764 190.063 89.8179 190.083 88.5015 190.083C87.2056 190.083 86.3315 190.053 85.879 189.991C85.4264 189.929 85.1899 189.754 85.1693 189.466C85.1693 189.343 85.2002 189.271 85.2619 189.25C85.3236 189.209 86.0538 189.189 87.4525 189.189C88.8511 189.189 90.3629 189.158 91.9879 189.096C95.176 184.448 97.7677 181.177 99.7628 179.285C96.3279 179.84 92.6255 180.118 88.6557 180.118C87.2159 180.118 85.4882 180.067 83.4724 179.964C83.3079 179.964 83.2256 180.036 83.2256 180.18C83.2256 180.221 83.2462 180.324 83.2873 180.488C83.2873 180.673 83.1433 180.766 82.8554 180.766C82.588 180.766 82.2383 180.622 81.8064 180.334C81.3744 180.046 81.1482 179.748 81.1276 179.439C81.1276 178.863 81.4978 178.575 82.2383 178.575C85.8173 178.822 89.1802 178.946 92.3272 178.946C95.4743 178.946 98.2922 178.76 100.781 178.39C103.249 176.333 105.635 175.305 107.939 175.305C108.864 175.305 109.327 175.469 109.327 175.799C109.327 176.374 108.083 177.074 105.594 177.897C104.319 178.328 102.838 178.709 101.151 179.038C99.6703 180.437 97.9836 182.504 96.0913 185.24C95.4537 186.124 94.6001 187.379 93.5305 189.004L98.0968 188.664C98.5287 188.664 98.7447 188.89 98.7447 189.343C98.7447 189.528 98.5493 189.713 98.1585 189.898C97.7677 190.063 97.3769 190.269 96.9861 190.515C96.5952 190.762 96.3998 191.06 96.3998 191.41C96.3998 191.739 96.297 191.904 96.0913 191.904C95.1452 191.904 94.6721 191.719 94.6721 191.348C94.6721 190.937 94.9292 190.474 95.4434 189.96C95.4434 189.878 95.3714 189.837 95.2274 189.837L93.4071 189.929L92.9135 189.96C90.2807 194.012 88.2238 196.727 86.7428 198.105C85.303 199.442 84.0175 200.111 82.8862 200.111C82.1663 200.111 81.8064 199.823 81.8064 199.247C81.8064 198.856 81.9606 198.455 82.2692 198.044C82.5777 197.632 82.8759 197.426 83.1639 197.426C83.4724 197.426 83.6267 197.519 83.6267 197.704ZM106.89 176.169C105.388 176.169 103.805 176.837 102.139 178.174C104.422 177.763 105.944 177.3 106.705 176.786C106.993 176.58 107.137 176.426 107.137 176.323C107.137 176.22 107.054 176.169 106.89 176.169ZM105.601 193.878C105.745 193.776 105.879 193.724 106.002 193.724C106.126 193.724 106.187 193.796 106.187 193.94V194.002C104.048 195.771 102.269 197.097 100.85 197.982C99.4304 198.866 98.1449 199.309 96.993 199.309C96.0675 199.309 95.6047 198.856 95.6047 197.951C95.6047 196.614 96.2834 195.246 97.641 193.848C98.9985 192.428 100.14 191.719 101.066 191.719C101.58 191.719 101.837 192.007 101.837 192.583C101.734 193.714 100.109 195.236 96.9622 197.149V197.457C96.9622 198.136 97.3119 198.475 98.0112 198.475C98.7311 198.475 99.5024 198.239 100.325 197.766C101.93 196.82 103.431 195.74 104.83 194.526L105.601 193.878ZM100.263 192.675C99.811 192.675 99.2247 193.056 98.5048 193.817C97.8055 194.578 97.3324 195.442 97.0856 196.408C98.0729 195.812 98.9059 195.185 99.5847 194.526C100.263 193.848 100.603 193.374 100.603 193.107C100.603 192.819 100.49 192.675 100.263 192.675ZM112.445 193.878C112.589 193.776 112.722 193.724 112.846 193.724C112.969 193.724 113.031 193.796 113.031 193.94V194.002C111.488 195.236 109.966 196.398 108.465 197.488C106.963 198.558 105.863 199.093 105.163 199.093C104.649 199.093 104.392 198.815 104.392 198.26C104.392 197.704 104.639 197.149 105.132 196.593C105.626 196.038 106.109 195.555 106.583 195.143C107.076 194.732 107.323 194.465 107.323 194.341C107.323 194.197 107.241 194.043 107.076 193.878C106.932 193.693 106.809 193.57 106.706 193.508C106.356 193.858 105.595 194.495 104.423 195.421L104.299 194.958C105.595 193.93 106.346 193.241 106.552 192.891V192.613C106.552 192.099 106.603 191.75 106.706 191.564C106.809 191.379 107.056 191.122 107.446 190.793C107.837 190.464 108.105 190.299 108.249 190.299C108.393 190.299 108.516 190.351 108.619 190.454C108.742 190.557 108.804 190.659 108.804 190.762C108.804 190.865 108.763 190.988 108.681 191.132C108.619 191.256 108.547 191.369 108.465 191.472C108.403 191.554 108.31 191.667 108.187 191.811C108.064 191.935 107.981 192.027 107.94 192.089C107.92 192.13 107.889 192.212 107.848 192.336C107.827 192.459 107.765 192.562 107.662 192.644C107.56 192.727 107.508 192.829 107.508 192.953C107.508 193.076 107.59 193.354 107.755 193.786C107.92 194.197 108.002 194.506 108.002 194.711C108.002 194.897 107.621 195.359 106.86 196.1C106.099 196.82 105.719 197.406 105.719 197.858C105.719 198.105 105.832 198.229 106.058 198.229C106.346 198.229 106.881 197.972 107.662 197.457L108.033 197.211C109.37 196.285 110.624 195.349 111.797 194.403L112.445 193.878ZM124.962 193.971C120.622 197.591 117.938 199.401 116.909 199.401C116.313 199.401 116.014 199.154 116.014 198.661C116.014 198.167 116.23 197.581 116.662 196.902C117.115 196.223 117.557 195.627 117.989 195.113C118.442 194.578 118.668 194.259 118.668 194.156C118.668 194.053 118.637 194.002 118.575 194.002C116.662 195.277 115.521 196.059 115.151 196.347C114.801 196.635 114.215 197.108 113.392 197.766C112.59 198.424 112.065 198.835 111.818 199C111.572 199.165 111.304 199.247 111.016 199.247C110.728 199.247 110.584 199.123 110.584 198.877C110.584 198.589 111.16 197.684 112.312 196.162C113.423 194.639 113.978 193.786 113.978 193.601C113.978 193.56 113.937 193.539 113.855 193.539C113.793 193.539 112.909 194.166 111.201 195.421L111.078 194.958C112.538 193.786 113.526 193.035 114.04 192.706C114.554 192.377 114.965 192.212 115.274 192.212C115.603 192.212 115.768 192.367 115.768 192.675C115.768 192.881 115.181 193.724 114.009 195.205C112.857 196.665 112.281 197.457 112.281 197.581C112.281 197.684 112.312 197.735 112.374 197.735C112.456 197.735 113.628 196.912 115.891 195.267C118.174 193.601 119.563 192.768 120.056 192.768C120.2 192.768 120.334 192.829 120.457 192.953C120.601 193.056 120.673 193.158 120.673 193.261C120.673 193.508 120.128 194.331 119.038 195.73C117.948 197.108 117.403 197.889 117.403 198.074C117.403 198.26 117.526 198.352 117.773 198.352C118.04 198.352 118.596 198.074 119.439 197.519C120.982 196.511 122.401 195.472 123.697 194.403L124.376 193.848C124.52 193.745 124.653 193.693 124.777 193.693C124.9 193.693 124.962 193.755 124.962 193.878V193.971ZM127.515 195.298C127.391 195.298 127.33 195.256 127.33 195.174C127.33 195.071 127.402 194.958 127.546 194.835C128.224 194.279 128.564 193.776 128.564 193.323C128.564 193.035 128.307 192.871 127.792 192.829C126.867 192.85 125.756 193.518 124.46 194.835C123.185 196.151 122.547 197.139 122.547 197.797C122.547 198.023 122.671 198.136 122.918 198.136C123.185 198.136 123.535 197.961 123.967 197.612C124.357 197.365 125.088 196.748 126.157 195.76C126.404 195.514 126.64 195.39 126.867 195.39C127.155 195.39 127.299 195.524 127.299 195.791C127.299 195.894 127.268 195.976 127.206 196.038C127.144 196.1 127.031 196.234 126.867 196.439C126.702 196.624 126.558 196.799 126.435 196.964C126.065 197.498 125.879 197.848 125.879 198.013C125.879 198.424 126.044 198.63 126.373 198.63C126.805 198.63 127.617 198.239 128.81 197.457C130.003 196.655 131.094 195.853 132.081 195.051L133.562 193.878C133.706 193.776 133.84 193.724 133.963 193.724C134.086 193.724 134.148 193.796 134.148 193.94V194.002C132.564 195.339 130.888 196.593 129.119 197.766C127.371 198.938 126.219 199.525 125.663 199.525C125.005 199.525 124.676 199.175 124.676 198.475C124.676 198.311 124.707 198.157 124.769 198.013C124.83 197.869 124.861 197.766 124.861 197.704C124.861 197.642 124.841 197.601 124.8 197.581C124.738 197.581 124.337 197.858 123.596 198.414C122.876 198.969 122.239 199.247 121.683 199.247C121.149 199.247 120.881 198.959 120.881 198.383C120.881 197.807 121.262 197.036 122.023 196.069C122.804 195.082 123.843 194.187 125.139 193.385C126.435 192.583 127.7 192.181 128.934 192.181C129.222 192.181 129.458 192.253 129.644 192.397C129.849 192.541 129.952 192.768 129.952 193.076C129.952 193.364 129.654 193.806 129.057 194.403C128.461 194.999 127.947 195.298 127.515 195.298ZM146.083 193.971C141.743 197.591 139.059 199.401 138.03 199.401C137.434 199.401 137.136 199.154 137.136 198.661C137.136 198.167 137.351 197.581 137.783 196.902C138.236 196.223 138.678 195.627 139.11 195.113C139.563 194.578 139.789 194.259 139.789 194.156C139.789 194.053 139.758 194.002 139.696 194.002C137.783 195.277 136.642 196.059 136.272 196.347C135.922 196.635 135.336 197.108 134.513 197.766C133.711 198.424 133.186 198.835 132.939 199C132.693 199.165 132.425 199.247 132.137 199.247C131.849 199.247 131.705 199.123 131.705 198.877C131.705 198.589 132.281 197.684 133.433 196.162C134.544 194.639 135.099 193.786 135.099 193.601C135.099 193.56 135.058 193.539 134.976 193.539C134.914 193.539 134.03 194.166 132.322 195.421L132.199 194.958C133.659 193.786 134.647 193.035 135.161 192.706C135.675 192.377 136.087 192.212 136.395 192.212C136.724 192.212 136.889 192.367 136.889 192.675C136.889 192.881 136.302 193.724 135.13 195.205C133.978 196.665 133.402 197.457 133.402 197.581C133.402 197.684 133.433 197.735 133.495 197.735C133.577 197.735 134.75 196.912 137.012 195.267C139.295 193.601 140.684 192.768 141.177 192.768C141.321 192.768 141.455 192.829 141.578 192.953C141.722 193.056 141.794 193.158 141.794 193.261C141.794 193.508 141.249 194.331 140.159 195.73C139.069 197.108 138.524 197.889 138.524 198.074C138.524 198.26 138.647 198.352 138.894 198.352C139.162 198.352 139.717 198.074 140.56 197.519C142.103 196.511 143.522 195.472 144.818 194.403L145.497 193.848C145.641 193.745 145.774 193.693 145.898 193.693C146.021 193.693 146.083 193.755 146.083 193.878V193.971ZM147.679 194.588L148.667 193.076C148.605 193.056 148.543 193.045 148.481 193.045C147.618 193.045 146.486 193.704 145.088 195.02C143.689 196.336 142.99 197.262 142.99 197.797C142.99 197.941 143.072 198.013 143.236 198.013C143.751 198.013 144.532 197.581 145.581 196.717C146.63 195.832 147.33 195.123 147.679 194.588ZM154.56 194.002C150.281 197.457 147.69 199.185 146.785 199.185C146.435 199.185 146.26 198.979 146.26 198.568C146.26 198.157 146.414 197.468 146.723 196.501C146.723 196.48 146.702 196.47 146.661 196.47C144.296 198.424 142.722 199.401 141.941 199.401C141.406 199.401 141.138 199.206 141.138 198.815C141.138 197.951 142.064 196.686 143.915 195.02C145.787 193.354 147.278 192.521 148.389 192.521C148.533 192.521 148.687 192.624 148.852 192.829C149.325 192.13 151.978 188.335 156.812 181.445C157.326 180.807 157.737 180.488 158.046 180.488C158.375 180.488 158.54 180.591 158.54 180.797C158.54 181.311 156.771 183.738 153.233 188.078C151.916 189.724 150.703 191.441 149.592 193.23C148.502 194.999 147.957 196.347 147.957 197.272C147.957 197.663 148.07 197.858 148.296 197.858C148.564 197.858 149.037 197.622 149.716 197.149C151.114 196.141 152.338 195.215 153.387 194.372L153.973 193.878C154.117 193.776 154.251 193.724 154.374 193.724C154.498 193.724 154.56 193.796 154.56 193.94V194.002ZM156.36 196.347C157.512 196.347 158.89 195.699 160.495 194.403L161.019 194.557C159.003 196.244 157.265 197.087 155.805 197.087C155.64 197.087 155.517 197.077 155.435 197.056C154.879 197.735 154.273 198.29 153.614 198.722C152.956 199.134 152.38 199.339 151.887 199.339C151.105 199.339 150.714 198.907 150.714 198.044C150.714 197.159 151.444 195.987 152.905 194.526C152.658 193.93 152.535 193.302 152.535 192.644C152.535 191.986 152.771 191.451 153.244 191.04C153.717 190.629 154.262 190.423 154.879 190.423C155.517 190.423 156.052 190.629 156.484 191.04C156.916 191.451 157.132 192.037 157.132 192.799C157.132 193.971 156.751 195.143 155.99 196.316C156.072 196.336 156.196 196.347 156.36 196.347ZM155.373 196.038C156.011 194.969 156.329 194.064 156.329 193.323C156.329 192.562 156.144 192.007 155.774 191.657C155.404 191.287 155.044 191.102 154.694 191.102C153.974 191.102 153.614 191.472 153.614 192.212C153.614 192.953 153.779 193.693 154.108 194.434C154.437 195.154 154.859 195.688 155.373 196.038ZM151.979 197.858C151.979 198.27 152.247 198.475 152.781 198.475C153.316 198.475 153.995 197.93 154.818 196.84C154.262 196.552 153.769 196.048 153.337 195.328C152.432 196.316 151.979 197.159 151.979 197.858Z" fill="#B2AB84"/>
</svg>
