<svg width="162" height="169" viewBox="0 0 162 169" fill="none" xmlns="http://www.w3.org/2000/svg">
<path d="M70.3912 44.8168C71.499 44.8168 72.3298 45.1491 72.8837 45.8138C73.5484 46.4785 73.8807 47.4201 73.8807 48.6387C73.8807 49.8572 73.0499 51.4082 71.3882 53.2914C69.7265 55.1747 68.2863 56.1163 67.0678 56.1163C65.8492 56.1163 64.963 55.784 64.4091 55.1193C63.8552 54.3438 63.5782 53.513 63.5782 52.6267C63.5782 51.6297 64.4644 50.0788 66.2369 47.974C68.0094 45.8692 69.3941 44.8168 70.3912 44.8168ZM84.1832 67.2497C85.0695 66.6958 85.7342 66.4188 86.1773 66.4188C86.7312 66.4188 87.0081 66.7512 87.0081 67.4158V67.9143C87.4512 67.9143 84.4602 70.3515 78.035 75.2258C71.7205 80.1001 64.9076 84.9744 57.5961 89.8487C50.3954 94.7231 45.8534 97.1602 43.9702 97.1602C40.7576 97.1602 39.1513 95.8308 39.1513 93.1721C39.1513 89.9595 41.9208 83.922 47.4597 75.0596C52.9987 66.0865 57.0422 61.5999 59.5901 61.5999C61.4734 61.5999 62.415 62.32 62.415 63.7601C62.415 65.2002 59.8671 69.1329 54.7712 75.5581C49.6753 81.9834 47.1274 86.5807 47.1274 89.3502C47.1274 90.9011 47.6813 91.6766 48.7891 91.6766C50.0077 91.6766 52.9433 90.1257 57.5961 87.0239C65.9046 81.4849 73.5484 75.8905 80.5275 70.2407L84.1832 67.2497ZM56.6783 86.8577C56.6783 88.5194 58.2292 90.4026 61.331 92.5075C64.3221 94.5015 67.2023 95.4985 69.9718 95.4985C72.8521 95.4985 75.2893 95.3323 77.2833 95L80.7729 90.3472C77.5603 84.5867 72.409 81.7064 65.3191 81.7064C62.8819 81.7064 60.8325 82.1495 59.1708 83.0358C57.5091 83.8112 56.6783 85.0852 56.6783 86.8577ZM83.2654 101.148C83.2654 100.262 83.1546 99.0435 82.9331 97.4925C55.5705 136.376 41.8892 157.701 41.8892 161.468C41.8892 162.465 42.5538 162.963 43.8832 162.963C48.8683 162.963 54.5181 159.474 60.8325 152.495C67.0362 145.626 72.2982 137.262 76.6186 127.403C81.0498 117.654 83.2654 108.903 83.2654 101.148ZM130.624 68.0805C113.564 82.2603 99.6608 91.3443 88.9152 95.3323C89.2475 96.8833 89.4137 98.4896 89.4137 100.151C89.4137 106.576 87.6412 113.833 84.0963 121.919C80.6621 130.117 76.3971 137.65 71.3012 144.519C66.2053 151.387 60.6663 157.147 54.6842 161.8C48.5913 166.564 43.1631 168.946 38.3996 168.946C35.187 168.946 33.5807 167.672 33.5807 165.124C33.5807 160.139 47.2066 138.149 74.4584 99.1542C72.7967 99.265 71.6335 99.3204 70.9689 99.3204C65.3191 99.3204 60.8325 98.1572 57.5091 95.8308C54.1857 93.5045 52.524 90.9565 52.524 88.187C52.524 85.3068 53.9088 83.0358 56.6783 81.3741C59.337 79.7124 62.6604 78.8815 66.6484 78.8815C73.8491 78.8815 79.6097 81.2079 83.9301 85.8607L121.651 34.1819C121.651 33.9603 121.484 33.8496 121.152 33.8496C111.514 44.0413 103.04 52.6267 95.7281 59.6059C88.5275 66.585 83.7085 71.0162 81.2714 72.8994L77.6156 75.7243L76.7848 73.2318C85.2041 66.3634 93.014 59.2735 100.215 51.9621C107.415 44.6506 112.511 39.0562 115.502 35.1789L119.989 29.363C127.633 19.7251 132.341 13.9092 134.113 11.9152C136.883 8.92411 139.043 7.42858 140.594 7.42858C142.145 7.42858 142.92 8.3702 142.92 10.2535C142.92 11.9152 139.652 17.4541 133.116 26.8704C126.58 36.2867 121.484 43.5982 117.829 48.8048C106.418 64.8679 99.3285 74.7273 96.559 78.383L87.5858 91.0119L88.0843 92.3413C96.3928 89.3502 105.477 84.199 115.336 76.8875L127.467 67.4158C128.353 66.8619 129.073 66.585 129.627 66.585C130.291 66.585 130.624 66.9727 130.624 67.7482V68.0805Z" fill="#B2AB84"/>
<circle cx="81" cy="81" r="78" stroke="#B2AB84" stroke-width="6"/>
</svg>
