<svg width="110" height="162" viewBox="0 0 110 162" fill="none" xmlns="http://www.w3.org/2000/svg">
<path d="M37.3912 37.8168C38.499 37.8168 39.3298 38.1491 39.8837 38.8138C40.5484 39.4785 40.8807 40.4201 40.8807 41.6387C40.8807 42.8572 40.0499 44.4082 38.3882 46.2914C36.7265 48.1747 35.2863 49.1163 34.0678 49.1163C32.8492 49.1163 31.963 48.784 31.4091 48.1193C30.8552 47.3438 30.5782 46.513 30.5782 45.6267C30.5782 44.6297 31.4644 43.0788 33.2369 40.974C35.0094 38.8692 36.3941 37.8168 37.3912 37.8168ZM51.1832 60.2497C52.0695 59.6958 52.7342 59.4188 53.1773 59.4188C53.7312 59.4188 54.0081 59.7512 54.0081 60.4158V60.9143C54.4512 60.9143 51.4602 63.3515 45.035 68.2258C38.7205 73.1001 31.9076 77.9744 24.5961 82.8487C17.3954 87.7231 12.8534 90.1602 10.9702 90.1602C7.75757 90.1602 6.15126 88.8308 6.15126 86.1721C6.15126 82.9595 8.92075 76.922 14.4597 68.0596C19.9987 59.0865 24.0422 54.5999 26.5901 54.5999C28.4734 54.5999 29.415 55.32 29.415 56.7601C29.415 58.2002 26.8671 62.1329 21.7712 68.5581C16.6753 74.9834 14.1274 79.5807 14.1274 82.3502C14.1274 83.9011 14.6813 84.6766 15.7891 84.6766C17.0077 84.6766 19.9433 83.1257 24.5961 80.0239C32.9046 74.4849 40.5484 68.8905 47.5275 63.2407L51.1832 60.2497ZM23.6783 79.8577C23.6783 81.5194 25.2292 83.4026 28.331 85.5075C31.3221 87.5015 34.2023 88.4985 36.9718 88.4985C39.8521 88.4985 42.2893 88.3323 44.2833 88L47.7729 83.3472C44.5603 77.5867 39.409 74.7064 32.3191 74.7064C29.8819 74.7064 27.8325 75.1495 26.1708 76.0358C24.5091 76.8112 23.6783 78.0852 23.6783 79.8577ZM50.2654 94.1483C50.2654 93.262 50.1546 92.0435 49.9331 90.4925C22.5705 129.376 8.88916 150.701 8.88916 154.468C8.88916 155.465 9.55384 155.963 10.8832 155.963C15.8683 155.963 21.5181 152.474 27.8325 145.495C34.0362 138.626 39.2982 130.262 43.6186 120.403C48.0498 110.654 50.2654 101.903 50.2654 94.1483ZM97.6238 61.0805C80.5637 75.2603 66.6608 84.3443 55.9152 88.3323C56.2475 89.8833 56.4137 91.4896 56.4137 93.1513C56.4137 99.5765 54.6412 106.833 51.0963 114.919C47.6621 123.117 43.3971 130.65 38.3012 137.519C33.2053 144.387 27.6663 150.147 21.6842 154.8C15.5913 159.564 10.1631 161.946 5.3996 161.946C2.18699 161.946 0.580679 160.672 0.580679 158.124C0.580679 153.139 14.2066 131.149 41.4584 92.1542C39.7967 92.265 38.6335 92.3204 37.9689 92.3204C32.3191 92.3204 27.8325 91.1572 24.5091 88.8308C21.1857 86.5045 19.524 83.9565 19.524 81.187C19.524 78.3068 20.9088 76.0358 23.6783 74.3741C26.337 72.7124 29.6604 71.8815 33.6484 71.8815C40.8491 71.8815 46.6097 74.2079 50.9301 78.8607L88.6506 27.1819C88.6506 26.9603 88.4844 26.8496 88.1521 26.8496C78.5143 37.0413 70.0396 45.6267 62.7281 52.6059C55.5275 59.585 50.7085 64.0162 48.2714 65.8994L44.6156 68.7243L43.7848 66.2318C52.2041 59.3634 60.014 52.2735 67.2147 44.9621C74.4154 37.6506 79.5113 32.0562 82.5023 28.1789L86.9889 22.363C94.6327 12.7251 99.3409 6.90919 101.113 4.91516C103.883 1.92411 106.043 0.428578 107.594 0.428578C109.145 0.428578 109.92 1.3702 109.92 3.25346C109.92 4.91515 106.652 10.4541 100.116 19.8704C93.5803 29.2867 88.4844 36.5982 84.8287 41.8048C73.4184 57.8679 66.3285 67.7273 63.559 71.383L54.5858 84.0119L55.0843 85.3413C63.3928 82.3502 72.4768 77.199 82.3362 69.8875L94.4666 60.4158C95.3528 59.8619 96.0729 59.585 96.6268 59.585C97.2914 59.585 97.6238 59.9727 97.6238 60.7482V61.0805Z" fill="#B2AB84"/>
</svg>
